<svg width="47" height="48" viewBox="0 0 47 48" fill="none" xmlns="http://www.w3.org/2000/svg">
<rect width="47" height="48" rx="13" fill="#006380"/>
<path d="M15.75 24.5C15.4533 24.5 15.1633 24.588 14.9166 24.7528C14.67 24.9176 14.4777 25.1519 14.3642 25.426C14.2506 25.7001 14.2209 26.0017 14.2788 26.2926C14.3367 26.5836 14.4796 26.8509 14.6893 27.0607C14.8991 27.2704 15.1664 27.4133 15.4574 27.4712C15.7483 27.5291 16.0499 27.4994 16.324 27.3858C16.5981 27.2723 16.8324 27.08 16.9972 26.8334C17.162 26.5867 17.25 26.2967 17.25 26C17.25 25.6022 17.092 25.2206 16.8107 24.9393C16.5294 24.658 16.1478 24.5 15.75 24.5ZM15.75 26.75C15.6017 26.75 15.4567 26.706 15.3333 26.6236C15.21 26.5412 15.1139 26.4241 15.0571 26.287C15.0003 26.15 14.9855 25.9992 15.0144 25.8537C15.0434 25.7082 15.1148 25.5746 15.2197 25.4697C15.3246 25.3648 15.4582 25.2934 15.6037 25.2644C15.7492 25.2355 15.9 25.2503 16.037 25.3071C16.1741 25.3639 16.2912 25.46 16.3736 25.5833C16.456 25.7067 16.5 25.8517 16.5 26C16.5 26.1989 16.421 26.3897 16.2803 26.5303C16.1397 26.671 15.9489 26.75 15.75 26.75Z" fill="white"/>
<path d="M30.75 24.5C30.4533 24.5 30.1633 24.588 29.9166 24.7528C29.67 24.9176 29.4777 25.1519 29.3642 25.426C29.2506 25.7001 29.2209 26.0017 29.2788 26.2926C29.3367 26.5836 29.4796 26.8509 29.6893 27.0607C29.8991 27.2704 30.1664 27.4133 30.4574 27.4712C30.7483 27.5291 31.0499 27.4994 31.324 27.3858C31.5981 27.2723 31.8324 27.08 31.9972 26.8334C32.162 26.5867 32.25 26.2967 32.25 26C32.25 25.6022 32.092 25.2206 31.8107 24.9393C31.5293 24.658 31.1478 24.5 30.75 24.5ZM30.75 26.75C30.6017 26.75 30.4567 26.706 30.3333 26.6236C30.21 26.5412 30.1139 26.4241 30.0571 26.287C30.0003 26.15 29.9855 25.9992 30.0144 25.8537C30.0433 25.7082 30.1148 25.5746 30.2197 25.4697C30.3246 25.3648 30.4582 25.2934 30.6037 25.2644C30.7492 25.2355 30.9 25.2503 31.037 25.3071C31.1741 25.3639 31.2912 25.46 31.3736 25.5833C31.456 25.7067 31.5 25.8517 31.5 26C31.5 26.1989 31.421 26.3897 31.2803 26.5303C31.1397 26.671 30.9489 26.75 30.75 26.75Z" fill="white"/>
<path d="M19.875 26.375H26.625V27.125H19.875V26.375Z" fill="white"/>
<path d="M19.875 24.875H26.625V25.625H19.875V24.875Z" fill="white"/>
<path d="M22.125 19.25H24.375V20H22.125V19.25Z" fill="white"/>
<path d="M34.5 22.625V21.875C34.4991 21.5769 34.3803 21.2913 34.1695 21.0805C33.9587 20.8697 33.6731 20.7509 33.375 20.75H31.89L31.1138 18.0275L30.8812 17.1013C30.8202 16.858 30.6797 16.6422 30.482 16.488C30.2843 16.3337 30.0407 16.25 29.79 16.25H26.625V14.75C26.6244 14.5513 26.5452 14.3608 26.4047 14.2203C26.2642 14.0798 26.0737 14.0006 25.875 14H20.625C20.4263 14.0006 20.2358 14.0798 20.0953 14.2203C19.9548 14.3608 19.8756 14.5513 19.875 14.75V16.25H16.71C16.4593 16.25 16.2157 16.3337 16.018 16.488C15.8203 16.6422 15.6798 16.858 15.6187 17.1013L15.39 18.0237L14.61 20.75H13.125C12.8269 20.7509 12.5413 20.8697 12.3305 21.0805C12.1197 21.2913 12.0009 21.5769 12 21.875V22.625C12.0006 22.815 12.0494 23.0017 12.1419 23.1676C12.2344 23.3336 12.3675 23.4733 12.5288 23.5737C12.1898 23.9221 12 24.3889 12 24.875V29.375C12.0005 29.5323 12.0342 29.6878 12.0988 29.8312C12.1634 29.9746 12.2575 30.1029 12.375 30.2075V31.625C12.3759 31.9231 12.4947 32.2087 12.7055 32.4195C12.9163 32.6303 13.2019 32.7491 13.5 32.75H16.5C16.7981 32.7491 17.0837 32.6303 17.2945 32.4195C17.5053 32.2087 17.6241 31.9231 17.625 31.625V30.5H28.875V31.625C28.8759 31.9231 28.9947 32.2087 29.2055 32.4195C29.4163 32.6303 29.7019 32.7491 30 32.75H33C33.2981 32.7491 33.5837 32.6303 33.7945 32.4195C34.0053 32.2087 34.1241 31.9231 34.125 31.625V30.2075C34.2425 30.1029 34.3366 29.9746 34.4012 29.8312C34.4658 29.6878 34.4995 29.5323 34.5 29.375V24.875C34.5 24.3889 34.3102 23.9221 33.9713 23.5737C34.1325 23.4733 34.2656 23.3336 34.3581 23.1676C34.4506 23.0017 34.4994 22.815 34.5 22.625ZM20.625 14.75H25.875V16.25H20.625V14.75ZM16.3463 17.285C16.3663 17.2037 16.4131 17.1315 16.479 17.0798C16.5449 17.0282 16.6263 17.0001 16.71 17H29.79C29.8737 17.0001 29.9551 17.0282 30.021 17.0798C30.0869 17.1315 30.1336 17.2037 30.1537 17.285L30.27 17.75H16.23L16.3463 17.285ZM16.0312 18.5H30.4688L31.7512 23H20.9662C20.8781 22.4759 20.6071 22.0001 20.2014 21.6569C19.7956 21.3137 19.2814 21.1254 18.75 21.1254C18.2186 21.1254 17.7044 21.3137 17.2986 21.6569C16.8929 22.0001 16.6219 22.4759 16.5338 23H14.7487L16.0312 18.5ZM20.1975 23H17.3025C17.3844 22.6782 17.5711 22.3929 17.8333 22.1891C18.0954 21.9853 18.418 21.8747 18.75 21.8747C19.082 21.8747 19.4046 21.9853 19.6667 22.1891C19.9289 22.3929 20.1156 22.6782 20.1975 23ZM12.75 21.875C12.75 21.7755 12.7895 21.6802 12.8598 21.6098C12.9302 21.5395 13.0255 21.5 13.125 21.5H14.3963L13.9688 23H13.125C13.0255 23 12.9302 22.9605 12.8598 22.8902C12.7895 22.8198 12.75 22.7245 12.75 22.625V21.875ZM16.875 31.625C16.875 31.7245 16.8355 31.8198 16.7652 31.8902C16.6948 31.9605 16.5995 32 16.5 32H13.5C13.4005 32 13.3052 31.9605 13.2348 31.8902C13.1645 31.8198 13.125 31.7245 13.125 31.625V30.5H16.875V31.625ZM33.375 31.625C33.375 31.7245 33.3355 31.8198 33.2652 31.8902C33.1948 31.9605 33.0995 32 33 32H30C29.9005 32 29.8052 31.9605 29.7348 31.8902C29.6645 31.8198 29.625 31.7245 29.625 31.625V30.5H33.375V31.625ZM33.75 29.375C33.75 29.4745 33.7105 29.5698 33.6402 29.6402C33.5698 29.7105 33.4745 29.75 33.375 29.75H13.125C13.0255 29.75 12.9302 29.7105 12.8598 29.6402C12.7895 29.5698 12.75 29.4745 12.75 29.375V29H33.75V29.375ZM33.75 28.25H12.75V24.875C12.7509 24.5769 12.8697 24.2913 13.0805 24.0805C13.2913 23.8697 13.5769 23.7509 13.875 23.75H32.625C32.9231 23.7509 33.2087 23.8697 33.4195 24.0805C33.6303 24.2913 33.7491 24.5769 33.75 24.875V28.25ZM33.75 22.625C33.75 22.7245 33.7105 22.8198 33.6402 22.8902C33.5698 22.9605 33.4745 23 33.375 23H32.5312L32.1038 21.5H33.375C33.4745 21.5 33.5698 21.5395 33.6402 21.6098C33.7105 21.6802 33.75 21.7755 33.75 21.875V22.625Z" fill="white"/>
</svg>
